<mxfile host="app.diagrams.net" modified="2020-10-20T18:39:15.322Z" agent="5.0 (Windows NT 10.0; Win64; x64) AppleWebKit/537.36 (KHTML, like Gecko) Chrome/86.0.4240.75 Safari/537.36" etag="juemff-HIHSHBAdb9M4Y" version="13.8.1" type="github">
  <diagram id="LbX8qGbdodIi82UEs2iO" name="Page-1">
    <mxGraphModel dx="868" dy="482" grid="1" gridSize="10" guides="1" tooltips="1" connect="1" arrows="1" fold="1" page="1" pageScale="1" pageWidth="827" pageHeight="1169" math="0" shadow="0">
      <root>
        <mxCell id="0" />
        <mxCell id="1" parent="0" />
        <mxCell id="rRCzJtvxpl4aAJUOXlck-1" value="usuários" style="whiteSpace=wrap;html=1;align=center;" parent="1" vertex="1">
          <mxGeometry x="300" y="340" width="100" height="40" as="geometry" />
        </mxCell>
        <mxCell id="rRCzJtvxpl4aAJUOXlck-2" value="cpf" style="ellipse;whiteSpace=wrap;html=1;align=center;fontStyle=4;" parent="1" vertex="1">
          <mxGeometry x="120" y="270" width="100" height="40" as="geometry" />
        </mxCell>
        <mxCell id="rRCzJtvxpl4aAJUOXlck-13" value="" style="endArrow=none;html=1;rounded=0;entryX=1;entryY=0.5;entryDx=0;entryDy=0;exitX=0;exitY=0;exitDx=0;exitDy=0;" parent="1" source="rRCzJtvxpl4aAJUOXlck-1" target="rRCzJtvxpl4aAJUOXlck-2" edge="1">
          <mxGeometry relative="1" as="geometry">
            <mxPoint x="300" y="318" as="sourcePoint" />
            <mxPoint x="470" y="290" as="targetPoint" />
          </mxGeometry>
        </mxCell>
        <mxCell id="rRCzJtvxpl4aAJUOXlck-16" value="" style="endArrow=none;html=1;rounded=0;entryX=1;entryY=0.5;entryDx=0;entryDy=0;" parent="1" source="rRCzJtvxpl4aAJUOXlck-1" target="rRCzJtvxpl4aAJUOXlck-18" edge="1">
          <mxGeometry relative="1" as="geometry">
            <mxPoint x="350" y="320" as="sourcePoint" />
            <mxPoint x="410" y="280" as="targetPoint" />
          </mxGeometry>
        </mxCell>
        <mxCell id="rRCzJtvxpl4aAJUOXlck-17" value="Nome" style="ellipse;whiteSpace=wrap;html=1;align=center;" parent="1" vertex="1">
          <mxGeometry x="120" y="320" width="100" height="40" as="geometry" />
        </mxCell>
        <mxCell id="rRCzJtvxpl4aAJUOXlck-18" value="senha" style="ellipse;whiteSpace=wrap;html=1;align=center;" parent="1" vertex="1">
          <mxGeometry x="180" y="220" width="100" height="40" as="geometry" />
        </mxCell>
        <mxCell id="rRCzJtvxpl4aAJUOXlck-20" value="" style="endArrow=none;html=1;rounded=0;exitX=1;exitY=0.5;exitDx=0;exitDy=0;entryX=0;entryY=0.5;entryDx=0;entryDy=0;" parent="1" source="rRCzJtvxpl4aAJUOXlck-17" target="rRCzJtvxpl4aAJUOXlck-1" edge="1">
          <mxGeometry relative="1" as="geometry">
            <mxPoint x="370" y="490" as="sourcePoint" />
            <mxPoint x="530" y="490" as="targetPoint" />
          </mxGeometry>
        </mxCell>
        <mxCell id="rRCzJtvxpl4aAJUOXlck-21" value="telefone" style="ellipse;whiteSpace=wrap;html=1;align=center;" parent="1" vertex="1">
          <mxGeometry x="300" y="210" width="100" height="40" as="geometry" />
        </mxCell>
        <mxCell id="rRCzJtvxpl4aAJUOXlck-22" value="" style="endArrow=none;html=1;rounded=0;exitX=0.75;exitY=0;exitDx=0;exitDy=0;entryX=0.5;entryY=1;entryDx=0;entryDy=0;" parent="1" source="rRCzJtvxpl4aAJUOXlck-1" target="rRCzJtvxpl4aAJUOXlck-21" edge="1">
          <mxGeometry relative="1" as="geometry">
            <mxPoint x="380" y="500" as="sourcePoint" />
            <mxPoint x="540" y="500" as="targetPoint" />
          </mxGeometry>
        </mxCell>
        <mxCell id="rRCzJtvxpl4aAJUOXlck-23" value="O" style="ellipse;whiteSpace=wrap;html=1;align=center;" parent="1" vertex="1">
          <mxGeometry x="330" y="410" width="40" height="40" as="geometry" />
        </mxCell>
        <mxCell id="rRCzJtvxpl4aAJUOXlck-24" value="" style="endArrow=none;html=1;rounded=0;exitX=0.38;exitY=1.025;exitDx=0;exitDy=0;exitPerimeter=0;entryX=0.25;entryY=0;entryDx=0;entryDy=0;entryPerimeter=0;" parent="1" source="rRCzJtvxpl4aAJUOXlck-1" target="rRCzJtvxpl4aAJUOXlck-23" edge="1">
          <mxGeometry relative="1" as="geometry">
            <mxPoint x="390" y="510" as="sourcePoint" />
            <mxPoint x="550" y="510" as="targetPoint" />
          </mxGeometry>
        </mxCell>
        <mxCell id="rRCzJtvxpl4aAJUOXlck-25" value="" style="endArrow=none;html=1;rounded=0;exitX=0.5;exitY=1;exitDx=0;exitDy=0;entryX=0.5;entryY=0;entryDx=0;entryDy=0;" parent="1" source="rRCzJtvxpl4aAJUOXlck-1" target="rRCzJtvxpl4aAJUOXlck-23" edge="1">
          <mxGeometry relative="1" as="geometry">
            <mxPoint x="400" y="520" as="sourcePoint" />
            <mxPoint x="560" y="520" as="targetPoint" />
          </mxGeometry>
        </mxCell>
        <mxCell id="rRCzJtvxpl4aAJUOXlck-27" value="administrador" style="whiteSpace=wrap;html=1;align=center;" parent="1" vertex="1">
          <mxGeometry x="180" y="520" width="100" height="40" as="geometry" />
        </mxCell>
        <mxCell id="rRCzJtvxpl4aAJUOXlck-28" value="" style="endArrow=none;html=1;rounded=0;exitX=0.5;exitY=0;exitDx=0;exitDy=0;entryX=0;entryY=1;entryDx=0;entryDy=0;" parent="1" source="rRCzJtvxpl4aAJUOXlck-27" target="rRCzJtvxpl4aAJUOXlck-23" edge="1">
          <mxGeometry relative="1" as="geometry">
            <mxPoint x="410" y="530" as="sourcePoint" />
            <mxPoint x="570" y="530" as="targetPoint" />
          </mxGeometry>
        </mxCell>
        <mxCell id="rRCzJtvxpl4aAJUOXlck-29" value="Proprietário" style="whiteSpace=wrap;html=1;align=center;" parent="1" vertex="1">
          <mxGeometry x="400" y="520" width="100" height="40" as="geometry" />
        </mxCell>
        <mxCell id="rRCzJtvxpl4aAJUOXlck-30" value="" style="endArrow=none;html=1;rounded=0;exitX=1;exitY=1;exitDx=0;exitDy=0;entryX=0.5;entryY=0;entryDx=0;entryDy=0;" parent="1" source="rRCzJtvxpl4aAJUOXlck-23" target="rRCzJtvxpl4aAJUOXlck-29" edge="1">
          <mxGeometry relative="1" as="geometry">
            <mxPoint x="420" y="540" as="sourcePoint" />
            <mxPoint x="580" y="540" as="targetPoint" />
          </mxGeometry>
        </mxCell>
        <mxCell id="rRCzJtvxpl4aAJUOXlck-42" value="veículo" style="whiteSpace=wrap;html=1;align=center;" parent="1" vertex="1">
          <mxGeometry x="610" y="370" width="100" height="40" as="geometry" />
        </mxCell>
        <mxCell id="rRCzJtvxpl4aAJUOXlck-45" value="modelo" style="ellipse;whiteSpace=wrap;html=1;align=center;" parent="1" vertex="1">
          <mxGeometry x="530" y="280" width="100" height="40" as="geometry" />
        </mxCell>
        <mxCell id="rRCzJtvxpl4aAJUOXlck-46" value="" style="endArrow=none;html=1;rounded=0;entryX=0.25;entryY=0;entryDx=0;entryDy=0;exitX=0.59;exitY=1;exitDx=0;exitDy=0;exitPerimeter=0;" parent="1" source="rRCzJtvxpl4aAJUOXlck-45" target="rRCzJtvxpl4aAJUOXlck-42" edge="1">
          <mxGeometry relative="1" as="geometry">
            <mxPoint x="598" y="362" as="sourcePoint" />
            <mxPoint x="810" y="340" as="targetPoint" />
          </mxGeometry>
        </mxCell>
        <mxCell id="rRCzJtvxpl4aAJUOXlck-48" value="" style="endArrow=none;html=1;rounded=0;exitX=0.5;exitY=0;exitDx=0;exitDy=0;entryX=0.5;entryY=1;entryDx=0;entryDy=0;" parent="1" source="rRCzJtvxpl4aAJUOXlck-42" target="rRCzJtvxpl4aAJUOXlck-49" edge="1">
          <mxGeometry relative="1" as="geometry">
            <mxPoint x="690" y="410" as="sourcePoint" />
            <mxPoint x="730" y="360" as="targetPoint" />
          </mxGeometry>
        </mxCell>
        <mxCell id="rRCzJtvxpl4aAJUOXlck-49" value="Placa" style="ellipse;whiteSpace=wrap;html=1;align=center;fontStyle=4;" parent="1" vertex="1">
          <mxGeometry x="650" y="280" width="100" height="40" as="geometry" />
        </mxCell>
        <mxCell id="rRCzJtvxpl4aAJUOXlck-50" value="Possui" style="shape=rhombus;perimeter=rhombusPerimeter;whiteSpace=wrap;html=1;align=center;" parent="1" vertex="1">
          <mxGeometry x="600" y="510" width="120" height="60" as="geometry" />
        </mxCell>
        <mxCell id="rRCzJtvxpl4aAJUOXlck-51" value="" style="shape=link;html=1;rounded=0;exitX=0.5;exitY=0;exitDx=0;exitDy=0;entryX=0.5;entryY=1;entryDx=0;entryDy=0;" parent="1" source="rRCzJtvxpl4aAJUOXlck-50" target="rRCzJtvxpl4aAJUOXlck-42" edge="1">
          <mxGeometry relative="1" as="geometry">
            <mxPoint x="670" y="520" as="sourcePoint" />
            <mxPoint x="810" y="490" as="targetPoint" />
          </mxGeometry>
        </mxCell>
        <mxCell id="rRCzJtvxpl4aAJUOXlck-52" value="N" style="resizable=0;html=1;align=right;verticalAlign=bottom;" parent="rRCzJtvxpl4aAJUOXlck-51" connectable="0" vertex="1">
          <mxGeometry x="1" relative="1" as="geometry">
            <mxPoint x="10" y="40" as="offset" />
          </mxGeometry>
        </mxCell>
        <mxCell id="rRCzJtvxpl4aAJUOXlck-56" value="" style="endArrow=none;html=1;rounded=0;entryX=1;entryY=0.5;entryDx=0;entryDy=0;" parent="1" source="rRCzJtvxpl4aAJUOXlck-50" target="rRCzJtvxpl4aAJUOXlck-29" edge="1">
          <mxGeometry relative="1" as="geometry">
            <mxPoint x="450" y="460" as="sourcePoint" />
            <mxPoint x="530" y="620" as="targetPoint" />
          </mxGeometry>
        </mxCell>
        <mxCell id="rRCzJtvxpl4aAJUOXlck-57" value="N" style="resizable=0;html=1;align=right;verticalAlign=bottom;" parent="rRCzJtvxpl4aAJUOXlck-56" connectable="0" vertex="1">
          <mxGeometry x="1" relative="1" as="geometry">
            <mxPoint x="40" as="offset" />
          </mxGeometry>
        </mxCell>
        <mxCell id="rRCzJtvxpl4aAJUOXlck-60" value="tem" style="shape=rhombus;double=1;perimeter=rhombusPerimeter;whiteSpace=wrap;html=1;align=center;" parent="1" vertex="1">
          <mxGeometry x="770" y="360" width="120" height="60" as="geometry" />
        </mxCell>
        <mxCell id="rRCzJtvxpl4aAJUOXlck-62" value="" style="endArrow=none;html=1;rounded=0;exitX=0;exitY=0.5;exitDx=0;exitDy=0;entryX=1;entryY=0.5;entryDx=0;entryDy=0;" parent="1" source="rRCzJtvxpl4aAJUOXlck-60" target="rRCzJtvxpl4aAJUOXlck-42" edge="1">
          <mxGeometry relative="1" as="geometry">
            <mxPoint x="810" y="395" as="sourcePoint" />
            <mxPoint x="740" y="385" as="targetPoint" />
          </mxGeometry>
        </mxCell>
        <mxCell id="rRCzJtvxpl4aAJUOXlck-63" value="1" style="resizable=0;html=1;align=right;verticalAlign=bottom;" parent="rRCzJtvxpl4aAJUOXlck-62" connectable="0" vertex="1">
          <mxGeometry x="1" relative="1" as="geometry">
            <mxPoint x="19.879999999999995" y="20.009999999999998" as="offset" />
          </mxGeometry>
        </mxCell>
        <mxCell id="rRCzJtvxpl4aAJUOXlck-64" value="" style="shape=link;html=1;rounded=0;exitX=1;exitY=0.5;exitDx=0;exitDy=0;entryX=0;entryY=0.5;entryDx=0;entryDy=0;" parent="1" source="rRCzJtvxpl4aAJUOXlck-60" target="rRCzJtvxpl4aAJUOXlck-67" edge="1">
          <mxGeometry relative="1" as="geometry">
            <mxPoint x="840" y="460" as="sourcePoint" />
            <mxPoint x="1080" y="380" as="targetPoint" />
          </mxGeometry>
        </mxCell>
        <mxCell id="rRCzJtvxpl4aAJUOXlck-65" value="N" style="resizable=0;html=1;align=right;verticalAlign=bottom;" parent="rRCzJtvxpl4aAJUOXlck-64" connectable="0" vertex="1">
          <mxGeometry x="1" relative="1" as="geometry" />
        </mxCell>
        <mxCell id="rRCzJtvxpl4aAJUOXlck-67" value="despesas" style="shape=ext;margin=3;double=1;whiteSpace=wrap;html=1;align=center;" parent="1" vertex="1">
          <mxGeometry x="940" y="370" width="100" height="40" as="geometry" />
        </mxCell>
        <mxCell id="rRCzJtvxpl4aAJUOXlck-73" value="&lt;span style=&quot;border-bottom: 1px dotted&quot;&gt;Data&lt;/span&gt;" style="ellipse;whiteSpace=wrap;html=1;align=center;" parent="1" vertex="1">
          <mxGeometry x="870" y="280" width="100" height="40" as="geometry" />
        </mxCell>
        <mxCell id="rRCzJtvxpl4aAJUOXlck-75" value="&lt;span style=&quot;border-bottom: 1px dotted&quot;&gt;tipo&lt;/span&gt;" style="ellipse;whiteSpace=wrap;html=1;align=center;" parent="1" vertex="1">
          <mxGeometry x="980" y="280" width="100" height="40" as="geometry" />
        </mxCell>
        <mxCell id="rRCzJtvxpl4aAJUOXlck-76" value="" style="endArrow=none;html=1;rounded=0;exitX=0.5;exitY=1;exitDx=0;exitDy=0;entryX=0.25;entryY=0;entryDx=0;entryDy=0;" parent="1" source="rRCzJtvxpl4aAJUOXlck-73" target="rRCzJtvxpl4aAJUOXlck-67" edge="1">
          <mxGeometry relative="1" as="geometry">
            <mxPoint x="640" y="460" as="sourcePoint" />
            <mxPoint x="800" y="460" as="targetPoint" />
          </mxGeometry>
        </mxCell>
        <mxCell id="rRCzJtvxpl4aAJUOXlck-77" value="" style="endArrow=none;html=1;rounded=0;entryX=0.5;entryY=1;entryDx=0;entryDy=0;exitX=0.44;exitY=-0.025;exitDx=0;exitDy=0;exitPerimeter=0;" parent="1" source="rRCzJtvxpl4aAJUOXlck-67" target="rRCzJtvxpl4aAJUOXlck-75" edge="1">
          <mxGeometry relative="1" as="geometry">
            <mxPoint x="960" y="330" as="sourcePoint" />
            <mxPoint x="1120" y="330" as="targetPoint" />
          </mxGeometry>
        </mxCell>
        <mxCell id="rRCzJtvxpl4aAJUOXlck-79" value="valor" style="ellipse;whiteSpace=wrap;html=1;align=center;" parent="1" vertex="1">
          <mxGeometry x="1080" y="310" width="100" height="40" as="geometry" />
        </mxCell>
        <mxCell id="rRCzJtvxpl4aAJUOXlck-80" value="" style="endArrow=none;html=1;rounded=0;entryX=0.34;entryY=1;entryDx=0;entryDy=0;entryPerimeter=0;exitX=1;exitY=0.25;exitDx=0;exitDy=0;" parent="1" source="rRCzJtvxpl4aAJUOXlck-67" target="rRCzJtvxpl4aAJUOXlck-79" edge="1">
          <mxGeometry relative="1" as="geometry">
            <mxPoint x="790" y="460" as="sourcePoint" />
            <mxPoint x="950" y="460" as="targetPoint" />
          </mxGeometry>
        </mxCell>
      </root>
    </mxGraphModel>
  </diagram>
</mxfile>
